<svg xmlns="http://www.w3.org/2000/svg" width="268.626" height="243.861" viewBox="0 0 268.626 243.861"><path d="M1.758,220.7A333.9,333.9,0,0,1,.446,169.246q.668-12.878,2.3-25.684.842-6.517,1.948-12.994c.68-3.975,1.279-8.035,2.277-11.947a8.1,8.1,0,0,1,2.542-4.509,11.533,11.533,0,0,1,4.723-1.9c4.416-1.021,8.869-1.885,13.326-2.7a37.5,37.5,0,0,0-10.933-6.783.8.8,0,0,1-.441-1.017A163.5,163.5,0,0,1,26.436,72.833c4.154-8.892,8.933-17.746,14.975-25.512A55.306,55.306,0,0,1,62.747,30.277,57.949,57.949,0,0,1,89.37,25.529,63.938,63.938,0,0,1,116.251,33.4,194.248,194.248,0,0,1,147.207,3.692Q149.6,1.9,152.045.2c1.1-.759,2.393.879,1.286,1.638-13.255,9.135-24.925,20.33-35.406,32.512.8.467,1.586.942,2.367,1.436a.535.535,0,0,1,.131.127c4.939,2.741,8.222,7.935,9.385,13.465a45.6,45.6,0,0,1,.617,11.853c-.213,4.008-.613,8.009-1.185,11.98a110.926,110.926,0,0,1-5.7,22.812,87.827,87.827,0,0,1-4.79,10.679c-1.668,3.133-3.433,6.637-5.949,9.183-5.122,5.182-12.608,3.189-18.707.792,1.451,4.674,2.718,9.434,3.836,14.194.595,2.535.539,4.644-.968,6.839-1.327,1.937-2.879,3.754-4.334,5.6-6.05,7.658-12.317,15.151-18.871,22.383-13,14.34-27.165,27.726-42.933,39A186.217,186.217,0,0,1,2.895,221.344.829.829,0,0,1,1.758,220.7ZM1.4,174.933c-.037,1.245-.063,2.494-.09,3.739,8-4.5,17.275-8.275,26.589-7.063l.153-.288c.849-1.582,1.72-3.148,2.576-4.723-5.306-.236-10.485,1.039-15.574,2.483q-3.758,1.066-7.437,2.4C5.434,172.282,3.045,173.206,1.4,174.933Zm16.448-73.362a45.525,45.525,0,0,1,11.819,7.807.787.787,0,0,1-.355,1.391Q23.1,112.138,16.842,113.3a26.148,26.148,0,0,0-5.366,1.193,5.951,5.951,0,0,0-3.231,4.214,112.4,112.4,0,0,0-2.382,12q-1.054,6.113-1.873,12.264-2.03,15.284-2.554,30.706a12.4,12.4,0,0,1,4.752-2.98c2.808-1.107,5.691-2.049,8.593-2.89,2.774-.808,5.582-1.529,8.42-2.09a20.037,20.037,0,0,1,8.054-.273Q42.631,144.6,54.835,124.212q13.988-23.388,29-46.133c1-1.522,2.008-3.036,3.014-4.551C79.274,71.307,71.31,71.315,63.484,71.7q-12.407.611-24.727,2.363A61.236,61.236,0,0,0,26.8,76.568,183.931,183.931,0,0,0,17.851,101.572ZM29.245,71.217c-.684,1.432-1.346,2.872-2,4.319a53.5,53.5,0,0,1,9.239-2.2c4.266-.7,8.567-1.219,12.867-1.668a174.667,174.667,0,0,1,25.239-1.241,53.875,53.875,0,0,1,12.96,2.027q3.186-4.784,6.428-9.531c-3.926-.542-7.826-1.2-11.786-1.555-4.393-.389-8.806-.539-13.214-.512a140.319,140.319,0,0,0-25,1.937A84.72,84.72,0,0,0,31.69,66.3Q30.433,68.751,29.245,71.217ZM65.619,30.749A52.616,52.616,0,0,0,44,46.8,108.446,108.446,0,0,0,32.442,64.827a48.891,48.891,0,0,1,9.195-2.789,94.832,94.832,0,0,1,12.358-1.72,198.963,198.963,0,0,1,26.413-.467,70.579,70.579,0,0,1,14.377,1.918c5.646-8.17,11.5-16.2,17.765-23.912.935-1.152,1.892-2.288,2.845-3.425C100.068,26.669,81.858,24.351,65.619,30.749ZM87.53,146.8q2.5-3.079,4.939-6.2c1.529-1.952,4.113-4.3,4.031-6.943a21.348,21.348,0,0,0-.912-4.416q-.561-2.243-1.163-4.476c-.841-3.133-1.791-6.233-2.7-9.348-.2-.7.412-1.649,1.219-1.249,5.153,2.543,12.672,5.68,17.749,1.313,2.591-2.229,4.33-5.71,5.942-8.671a86.794,86.794,0,0,0,4.633-10.017,105.175,105.175,0,0,0,5.6-20.73c1.211-7.209,2.161-14.826,1.638-22.147-.46-6.405-2.793-13.719-8.54-17.121a.593.593,0,0,1-.363-.075q-.628-.376-1.267-.733c-.251-.1-.494-.217-.756-.31a.42.42,0,0,1-.273-.258c-.067-.037-.138-.067-.206-.1A422.776,422.776,0,0,0,88.536,73.67q-15.065,22.367-29.015,45.46-3.764,6.2-7.452,12.444c4.7,4.977,7.826,11.629,10.376,17.892,1.368,3.362,2.621,6.783,3.788,10.219a32.534,32.534,0,0,1,2.083,9.273C75,161.82,81.383,154.4,87.53,146.8ZM67.223,170.106c-.348-7.082-3.1-13.951-5.814-20.442a91.271,91.271,0,0,0-4.379-9.127,91.327,91.327,0,0,0-5.388-8.234q-2.109,3.573-4.188,7.164a.5.5,0,0,1,.146.138,110.7,110.7,0,0,1,9.973,17.5c1.409,3.111,2.688,6.289,3.78,9.524a29.828,29.828,0,0,1,1.87,7.624Q65.241,172.2,67.223,170.106ZM48.684,188.148c4.6-4.076,9.038-8.323,13.356-12.694-.187-1.387-.254-2.786-.557-4.173a44,44,0,0,0-1.5-5.052c-1.051-3.01-2.247-5.975-3.563-8.88a108.934,108.934,0,0,0-9.569-16.86q-7.4,12.754-14.489,25.677-13.04,23.8-25.183,48.078c-.662,1.328-1.3,2.666-1.929,4.008A214.049,214.049,0,0,0,48.684,188.148ZM3.77,219.033c7.721-15.476,15.342-30.975,23.5-46.231-9.292-1.013-17.581,3.182-25.968,6.6q-.106,6.585.056,13.177c.228,8.925.909,17.839,1.915,26.712C3.437,219.209,3.6,219.115,3.77,219.033Z" transform="translate(268.626 110.707) rotate(120)" fill="#f8b5ac" opacity="0.75"></path></svg>