<svg xmlns="http://www.w3.org/2000/svg" width="327.476" height="330.489" viewBox="0 0 327.476 330.489"> <path id="Leaf_2" d="M607.858,466.6q-1.868-3.5-3.732-7c-2.3-4.314-4.6-8.632-7.07-12.852-20.135-34.532-50.341-61.973-81.36-87.184.107.372.218.74.325,1.108,9.929,33.2,30,63.608,57.9,84.146,8.645,6.359,18.013,11.8,25.9,19.074,18.192,16.8,26.777,41.714,43.558,59.923-17.362-11.641-38.589-16.057-59.418-17.769s-41.842-.967-62.594-3.454c.625.073,1.793,1.322,2.324,1.7.924.663,1.853,1.314,2.79,1.96q2.7,1.849,5.478,3.591,5.546,3.479,11.367,6.5a165.934,165.934,0,0,0,24.12,10.185,167.621,167.621,0,0,0,51.5,8.564,159.461,159.461,0,0,0,19.737-1.357q2.484-.3,4.964-.6c.8-.094,1.588-.193,2.384-.287a8.425,8.425,0,0,1,2.465-.21,4.074,4.074,0,0,1,1.429.646c1.9,1.25,3.15,3.077,4.541,4.832,1.618,2.046,3.24,4.1,4.875,6.128s3.287,4.057,4.96,6.06q1.766,2.1,3.565,4.168,4.455,5.264,9.034,10.43c2.974,3.355,6.693,6.565,9.27,10.22q10.694,11.51,22.005,22.434a271.054,271.054,0,0,0-50.384-15.214c-18.916-3.877-38.127-6.2-57.338-7.99-10.922-1.019-21.864-1.708-32.782-2.7a.688.688,0,0,0-.359,1.309A225.961,225.961,0,0,0,621.3,594.915a241.347,241.347,0,0,0,58.28,8.469,189.68,189.68,0,0,0,32.645-1.853.847.847,0,0,0,.963.809,519.407,519.407,0,0,0,41.268,35.178q7.883,6.021,16.027,11.692a.117.117,0,0,0,.051.111c.317.231.633.454.95.676-.154,0-.308,0-.458,0a363.2,363.2,0,0,0-60.167-18.976c-22.969-5.2-46.284-8.713-69.642-11.606-13.134-1.626-26.3-3.021-39.441-4.6-.659-.077-1.2.895-.548,1.3a313.02,313.02,0,0,0,62.4,29.953c22.2,7.592,45.3,11.623,68.795,10.943a348.058,348.058,0,0,0,42.411-4.143c.231.1.462.2.693.3l.068.073a.362.362,0,0,0,.338.1c.184.077.368.154.578.24,6.745,4.746,13.588,9.359,20.56,13.763a297.327,297.327,0,0,0,27.886,15.21c5.431,2.662,10.93,5.315,16.588,7.46a.663.663,0,0,0,.89-.411c.184.081.364.167.548.244a.146.146,0,0,0,.111-.27c-.21-.1-.415-.2-.629-.3a.651.651,0,0,0-.385-.539c-6.052-2.975-12.163-5.8-18.223-8.748a478.1,478.1,0,0,1-45.428-27.287,1.1,1.1,0,0,0-.013-.2c-5.5-20.225-8.76-40.943-12.946-61.459-2.072-10.147-4.378-20.26-7.318-30.2a248.262,248.262,0,0,0-10.81-28.964c-4.669-10.673-9.514-21.372-12.1-32.786a.867.867,0,0,0-1.712-.013,169.964,169.964,0,0,0-2.093,67.738,165.3,165.3,0,0,0,22.511,58.947A156.789,156.789,0,0,0,769.1,646.245q-2.568-1.817-5.11-3.672a513.816,513.816,0,0,1-49.866-41.752c-.894-11.551-2.559-23.067-4.014-34.558-1.446-11.41-2.987-22.81-4.767-34.177-3.539-22.626-8.071-45.141-14.727-67.075-3.826-12.616-8.9-24.817-12.612-37.464a.967.967,0,0,0-1.776-.021c-6.8,21.86-7.25,45.364-4.014,67.883,3.36,23.4,10.982,45.954,20.4,67.562,4.721,10.844,9.886,21.488,15.394,31.956q-6.708-6.555-13.211-13.305-10.573-11.035-20.576-22.592-5-5.778-9.869-11.666c-3.218-3.9-6.167-8.191-9.6-11.9-3.869-4.181-4.164-9.368-4.228-14.91-.312-26.033-1.545-52.113-5.521-77.838-3.312-21.424-8.542-42.86-7.057-64.485-3.693.325-5.855,4.228-7.194,7.682-8.461,21.783-10.562,45.775-7.69,68.966s10.6,45.617,21.107,66.484A322.439,322.439,0,0,1,610,470.583Q608.919,468.6,607.858,466.6Zm-5.277-4.027a49.9,49.9,0,0,0-10.048-7.117,175.729,175.729,0,0,1-19.134-12.8,163.138,163.138,0,0,1-52.845-72.022c-1-2.709-1.9-5.448-2.752-8.2,6.209,5.3,12.484,10.511,18.556,15.976,6.651,5.979,13.061,12.214,19.365,18.556,12.376,12.449,24.017,25.8,33.6,40.536a172.258,172.258,0,0,1,10.566,18.621c-1.515-2.1-3.09-4.151-4.686-6.184-3.89-4.964-8.016-9.736-12.253-14.409-8.7-9.586-17.765-18.839-26.846-28.057-5.478-5.559-10.964-11.123-16.558-16.566-.188-.18-.509.128-.334.321,9.056,10.031,18.364,19.857,27.741,29.581,8.7,9.026,17.345,18.107,25.3,27.813,3.749,4.571,7.172,9.372,10.669,14.127.051.12.107.24.158.364C602.91,462.927,602.756,462.743,602.581,462.572Zm98.542,190.9c-22.678-3.218-44.542-10.682-65.23-20.388-10.6-4.973-20.846-10.6-30.963-16.485,22.143,2.221,44.281,4.875,66.257,8.35,23.11,3.655,46.1,8.371,68.483,15.227,9.531,2.919,18.933,6.154,28.181,9.83-2.439.021-4.883.056-7.318.026q-6.984-.083-13.96-.372-14.084-.61-28.1-2.23a339.184,339.184,0,0,1-54.924-11.016c-10.006-2.9-19.8-6.424-29.585-10a.242.242,0,0,0-.188.445c17.029,7.746,35.414,12.907,53.675,16.819a396.943,396.943,0,0,0,55.738,7.678q7.947.552,15.911.8c1.977.06,3.972.128,5.97.184-9,1.031-18,2.08-27.051,2.563A190.265,190.265,0,0,1,701.123,653.469Zm41.726-52.353a163.186,163.186,0,0,1-12.445-64.43,164.989,164.989,0,0,1,4-33.818c2.315,8.658,5.769,16.952,9.355,25.168a288.959,288.959,0,0,1,11.388,29c6.33,20.161,9.7,41.059,13.7,61.763,1.909,9.873,3.967,19.72,6.509,29.448-7.331-11.452-12.184-24.355-16.78-37.1-5.157-14.3-8.9-29.118-12.27-43.93-1.9-8.362-3.393-16.823-5.349-25.173-.047-.2-.359-.175-.329.039,1.134,7.682,2.825,15.321,4.421,22.917,1.571,7.46,3.261,14.9,5.17,22.275,3.856,14.893,8.247,29.859,14.307,44.016,2.82,6.586,5.8,13.554,10.69,18.916a.906.906,0,0,0-.454-.145l-.2,0c-.535-.372-1.07-.74-1.6-1.113A171.6,171.6,0,0,1,742.849,601.116Zm-41.619-2.157c-3.651.274-7.314.407-10.973.419A179.553,179.553,0,0,1,667.973,598a287.457,287.457,0,0,1-42.835-8.966c-8.033-2.251-16.036-4.622-23.966-7.224-.081-.03-.137.094-.051.124,13.832,5.071,27.706,9.912,42.043,13.382a210.157,210.157,0,0,0,40.147,5.983l-.214,0a243.169,243.169,0,0,1-29.05-1.708A234.361,234.361,0,0,1,597.6,585.62,250.711,250.711,0,0,1,570.68,573.2c18.124,1.113,36.3,2.739,54.3,5.089,19,2.474,37.921,5.923,56.311,11.354A243.971,243.971,0,0,1,706,598.428C704.4,598.625,702.8,598.844,701.23,598.959Zm-18.12-64.618c-7.271-21.946-11.786-44.97-11.157-68.166a145.942,145.942,0,0,1,5.213-34.956c3.257,10.036,7.309,19.806,10.528,29.863,3.531,11.033,6.471,22.245,8.979,33.556,4.956,22.344,8.255,45.013,11.157,67.7,1.318,10.322,2.867,20.692,3.792,31.083-1.738-6.1-3.822-12.133-5.576-18.206-2.38-8.247-4.609-16.528-6.766-24.835-4.374-16.849-8.166-33.843-11.487-50.932-1.849-9.518-3.321-19.1-5.028-28.639a.261.261,0,0,0-.518.06c1.023,8.615,2.542,17.174,4.027,25.72s3.137,17.067,4.926,25.558q5.29,25.132,12.342,49.84,2,6.991,4.13,13.934c1.241,4.053,2.443,8.157,3.98,12.12-.15,0-.3,0-.453,0-.321-.312-.642-.62-.963-.929C700.241,576.6,690.3,556.056,683.11,534.341Zm-36.373-6.128c-12.852-2.927-25.947-4.485-38.991-6.278q-19.849-2.722-39.441-6.873-11.028-2.343-21.98-5.041c-.146-.038-.218.218-.073.261q19.124,5.611,38.714,9.342c13.027,2.5,26.157,4.323,39.244,6.488,7.528,1.241,15.038,2.658,22.455,4.447a1,1,0,0,0,.6-.043l.381.188a196.351,196.351,0,0,1-23.384,2.354,166.1,166.1,0,0,1-26.046-1.267,163.295,163.295,0,0,1-49.477-14.457,161.306,161.306,0,0,1-22.562-13.074c16.28,2.345,32.8,1.879,49.2,2.521,16.862.659,33.42,3.047,49.16,9.372a123.364,123.364,0,0,1,21.676,11.375C646.391,527.759,646.566,527.986,646.738,528.213Zm-10.416-27.924a207.1,207.1,0,0,1-9.064-29.953c-4.322-19.793-5.3-40.4-1.695-60.394a126.313,126.313,0,0,1,4.117-16.485c.86-2.653,1.78-5.3,2.871-7.866a12.073,12.073,0,0,1,3.539-5.148c-.723,9.364.24,18.98,1.459,28.241,1.3,9.886,3.158,19.686,4.823,29.516,3.394,20.05,4.823,40.207,5.559,60.514q.437,12.139.822,24.283c-.317-1.284-.642-2.563-.95-3.843-.912-3.749-1.849-7.494-2.748-11.251-1.793-7.511-3.458-15.056-5.08-22.6s-3.128-15.141-4.57-22.738a158.963,158.963,0,0,1-2.872-22.844,126.838,126.838,0,0,1,.094-12.946c.257-4.37,1-8.666,1.382-13.014a.437.437,0,0,0-.864-.12,74.2,74.2,0,0,0-1.464,11.508q-.43,5.559-.376,11.14a163.295,163.295,0,0,0,2.11,22.827c2.315,15.471,5.473,30.835,9.1,46.049,1.01,4.224,2.02,8.457,3.146,12.65.8,3.021,1.558,6.094,2.55,9.073l-.021-.017C644.063,518.07,639.809,509.374,636.321,500.288Z" transform="translate(-515.696 -359.566)" fill="#f8b5ac" opacity="0.75"></path> </svg>