<svg xmlns="http://www.w3.org/2000/svg" viewBox="0 0 600 900">
  <path d="M438.062,851.519v-1c37.363,0,56.483-26.136,58.437-50.42,1.418-17.627-.734-35.555-2.816-52.893-.629-5.237-1.279-10.652-1.82-15.976a440.732,440.732,0,0,1-1.5-69.844,434.663,434.663,0,0,1,9.527-68.885c1.448-6.523,3.078-13.239,4.654-19.733,8.122-33.464,16.52-68.067,6.7-100.019-12.567-40.913-50.714-59.941-82.944-60.648-.831-.018-1.665-.027-2.495-.027-27.618,0-54.805,9.93-81.126,19.543-5.5,2.011-11.2,4.09-16.792,6.04-14.753,5.143-29.861,9.72-44.9,13.606-15.02,3.88-30.35,7.167-45.564,9.77s-30.693,4.587-46,5.9c-15.336,1.311-30.889,1.979-46.227,1.984-1.887,0-3.811-.008-5.671-.017-15.94-.072-32.422-.147-47.79,5.468A49.744,49.744,0,0,0,69.2,490.531c-6.442,8.372-9.708,18.567-9.708,30.3h-1a54.427,54.427,0,0,1,2.687-17.3,46.41,46.41,0,0,1,7.228-13.615,50.741,50.741,0,0,1,22.981-16.5,91.206,91.206,0,0,1,23.841-4.923c8.06-.68,16.314-.643,24.3-.606,1.859.008,3.781.017,5.666.017a553.536,553.536,0,0,0,182.371-31.2c5.588-1.948,11.277-4.026,16.779-6.035,13.566-4.955,27.595-10.078,41.555-13.792a183.663,183.663,0,0,1,21.073-4.4,128.35,128.35,0,0,1,21.358-1.38,94.089,94.089,0,0,1,50.32,16.064A84.16,84.16,0,0,1,512.2,472.456c9.9,32.214,1.465,66.953-6.688,100.548-1.575,6.49-3.2,13.2-4.65,19.714a440.73,440.73,0,0,0-8.009,138.411c.541,5.315,1.19,10.725,1.818,15.958,1.043,8.684,2.121,17.663,2.739,26.509a177.058,177.058,0,0,1,.081,26.584A56.274,56.274,0,0,1,492.96,818a55.308,55.308,0,0,1-11.114,16.56,53.958,53.958,0,0,1-18.16,12.21A66.959,66.959,0,0,1,438.062,851.519Z" 
        transform="translate(-58.49 -411.073)" 
        fill="#000"/>
</svg>
